<svg width="72" height="72" viewBox="0 0 72 72" fill="none" xmlns="http://www.w3.org/2000/svg">
  <g id="download-core-small">
    <circle cx="36" cy="36" r="34.2" fill="url(#paint0_radial)"/>
    <path opacity="0.4" d="M64.77 36.2C65.52 51.59 53.79 63.58 38.57 62.98C23.34 62.37 10.39 49.4 9.63 34C8.88 18.61 20.61 6.62 35.83 7.22C51.06 7.83 64.01 20.8 64.77 36.2Z" fill="url(#paint1_radial)"/>
    <path d="M62.37 38C63.12 53.39 51.39 65.38 36.17 64.78C20.94 64.17 7.99 51.2 7.23 35.8C6.48 20.41 18.21 8.42 33.43 9.02C48.66 9.63 61.61 22.6 62.37 38Z" fill="url(#paint2_radial)"/>
    <path fill-rule="evenodd" clip-rule="evenodd" d="M39.08 42.27L46.34 35.76L48.89 38.51L38.91 47.48L37.85 48.43L36.61 47.48L24.99 38.51L27.04 35.76L35.48 42.27L33.6 21.6H37.2L39.08 42.27Z" fill="url(#paint3_radial)"/>
  </g>
  <defs>
    <radialGradient id="paint0_radial" cx="0" cy="0" r="1" gradientUnits="userSpaceOnUse" gradientTransform="translate(36 36) rotate(-90) scale(34.38)">
      <stop offset="0.78" stop-color="#982DBE"/>
      <stop offset="1" stop-color="#E4A1FA" stop-opacity="0"/>
    </radialGradient>
    <radialGradient id="paint1_radial" cx="0" cy="0" r="1" gradientUnits="userSpaceOnUse" gradientTransform="translate(53 20) rotate(135) scale(49.98)">
      <stop stop-color="#FFDCCC"/>
      <stop offset="1" stop-color="#E4A1FA"/>
    </radialGradient>
    <radialGradient id="paint2_radial" cx="0" cy="0" r="1" gradientUnits="userSpaceOnUse" gradientTransform="translate(52.8 19.7) rotate(135) scale(53.1)">
      <stop stop-color="#FFA984"/>
      <stop offset="1" stop-color="#C44AF1"/>
    </radialGradient>
    <radialGradient id="paint3_radial" cx="0" cy="0" r="1" gradientUnits="userSpaceOnUse" gradientTransform="translate(31.2 32.1) rotate(39.52) scale(15.56)">
      <stop stop-color="#EF7744"/>
      <stop offset="0.24" stop-color="#E50914"/>
      <stop offset="1" stop-color="#792A95"/>
    </radialGradient>
  </defs>
</svg>