<svg width="72" height="72" viewBox="0 0 72 72" fill="none" xmlns="http://www.w3.org/2000/svg">
  <g id="television-core-small">
    <path fill-rule="evenodd" clip-rule="evenodd" d="M37.2 53.399C37.2 52.736 36.662 52.199 36 52.199H34.8C34.137 52.199 33.6 52.736 33.6 53.399V56.264C33.6 56.913 33.083 57.443 32.435 57.474C30.301 57.574 28.172 57.783 26.055 58.101L19.444 59.093C18.269 59.269 17.4 60.278 17.4 61.466V62.099C17.4 62.43 17.669 62.699 18 62.699H52.8C53.131 62.699 53.4 62.43 53.4 62.099V61.466C53.4 60.278 52.531 59.269 51.356 59.093L44.745 58.101C42.628 57.783 40.499 57.574 38.365 57.474C37.717 57.443 37.2 56.913 37.2 56.264V53.399Z" fill="url(#paint0_radial)"/>
    <path d="M18.6 60.739C18.6 60.231 18.959 59.796 19.46 59.711C22.02 59.278 29.759 58.051 35.4 58.051C41.041 58.051 48.78 59.278 51.34 59.711C51.841 59.796 52.2 60.231 52.2 60.739C52.2 60.902 52.058 61.027 51.897 61.001C50.122 60.707 40.97 59.241 35.4 59.241C29.83 59.241 20.678 60.707 18.903 61.001C18.743 61.027 18.6 60.902 18.6 60.739Z" fill="url(#paint1_radial)"/>
    <rect x="7.2" y="12" width="57.6" height="41.4" rx="1.8" fill="url(#paint2_linear)"/>
    <path fill-rule="evenodd" clip-rule="evenodd" d="M8.99995 12.6H63C63.663 12.6 64.2 13.137 64.2 13.8V50.4H7.79995V13.8C7.79995 13.137 8.33719 12.6 8.99995 12.6ZM7.19995 50.4V51.6C7.19995 52.594 8.00581 53.4 8.99995 53.4H63C63.9942 53.4 64.8 52.594 64.8 51.6V50.4H7.19995Z" fill="url(#paint4_radial)"/>
    <circle cx="35.4" cy="51.9" r="1.2" fill="url(#paint5_radial)"/>
  </g>
  <defs>
    <radialGradient id="paint0_radial" cx="0" cy="0" r="1" gradientUnits="userSpaceOnUse" gradientTransform="translate(50.327 49.372) rotate(118.526) scale(55.158 46.287)">
      <stop stop-color="#802600"/>
      <stop offset="0.333" stop-color="#6F181D"/>
      <stop offset="0.667" stop-color="#5B1333"/>
      <stop offset="1" stop-color="#391945"/>
    </radialGradient>
    <radialGradient id="paint1_radial" cx="0" cy="0" r="1" gradientUnits="userSpaceOnUse" gradientTransform="translate(48.108 53.613) rotate(158.116) scale(32.728 42.219)">
      <stop stop-color="#99421D"/>
      <stop offset="0.333" stop-color="#99161D"/>
      <stop offset="0.667" stop-color="#7D1845"/>
      <stop offset="1" stop-color="#59216E"/>
    </radialGradient>
    <linearGradient id="paint2_linear" x1="10.473" y1="14.957" x2="56.176" y2="51.481" gradientUnits="userSpaceOnUse">
      <stop stop-color="#99161D"/>
      <stop offset="0.245" stop-color="#CA005B"/>
      <stop offset="0.347" stop-color="#FF479A"/>
      <stop offset="0.469" stop-color="#CC3CFF"/>
      <stop offset="0.736" stop-color="#BC1A22"/>
      <stop offset="1" stop-color="#C94FF5"/>
    </linearGradient>
    <radialGradient id="paint4_radial" cx="0" cy="0" r="1" gradientUnits="userSpaceOnUse" gradientTransform="translate(54 20.194) rotate(144.293) scale(47.29 44.823)">
      <stop stop-color="#EF7744"/>
      <stop offset="0.333" stop-color="#E50914"/>
      <stop offset="0.667" stop-color="#A70D53"/>
      <stop offset="1" stop-color="#792A95"/>
    </radialGradient>
    <radialGradient id="paint5_radial" cx="0" cy="0" r="1" gradientUnits="userSpaceOnUse" gradientTransform="translate(36.525 51.356) rotate(135) scale(4.587)">
      <stop stop-color="#FFDCCC"/>
      <stop offset="0.333" stop-color="#FFBDC0"/>
      <stop offset="0.667" stop-color="#F89DC6"/>
      <stop offset="1" stop-color="#E4A1FA"/>
    </radialGradient>
  </defs>
</svg>