<svg width="72" height="72" viewBox="0 0 72 72" fill="none" xmlns="http://www.w3.org/2000/svg">
  <g id="telescope-core-small">
    <path d="M24.0492 36.6016L33.6 46.3898L17.8029 56.8633C17.8029 56.8633 15.8891 57.6983 13.625 55.2638C11.361 52.8293 12.1235 51.238 12.1235 51.238L24.0492 36.6016Z" fill="url(#paint0_radial)"/>
    <path d="M25.0344 34.1992L36 46.151L25.0616 53.8043C25.0616 53.8043 21.8289 55.0984 18.0987 51.0172C14.3686 46.9358 15.9198 44.5105 15.9198 44.5105L25.0344 34.1992Z" fill="url(#paint1_radial)"/>
    <path d="M39 13.0195L59.1 33.6788L32.5325 50.4142C32.5325 50.4142 28.7459 50.2552 24.3978 45.4897C20.0498 40.7243 21.4096 35.8101 21.4096 35.8101L39 13.0195Z" fill="url(#paint2_radial)"/>
    <path d="M57.6709 15.3516C63.1044 21.2807 63.9858 29.2883 59.6386 33.2371C55.2916 37.186 47.3628 35.5806 41.9292 29.6515C36.4954 23.7224 35.6145 15.7148 39.9615 11.766C44.3084 7.81716 52.2372 9.42252 57.6709 15.3516Z" fill="url(#paint3_radial)"/>
    <path d="M58.3787 31.255C54.8121 34.5032 48.2143 33.0817 43.6421 28.0798C39.07 23.078 38.2547 16.39 41.8213 13.1419C45.3879 9.89364 51.9857 11.3152 56.5579 16.3171C61.1298 21.3189 61.9452 28.0069 58.3787 31.255Z" fill="url(#paint4_radial)"/>
    <path d="M59.6783 28.823C60.576 24.1785 59.6544 20.5934 56.1603 16.6199C52.6662 12.6464 47.3508 10.8657 43.7796 12.7598C39.371 15.098 48.3734 13.5961 53.4577 19.5815C57.8259 24.724 58.8516 33.1009 59.6783 28.823Z" fill="url(#paint5_radial)" opacity="0.85"/>
    <defs>
      <radialGradient id="paint0_radial" cx="0" cy="0" r="1" gradientUnits="userSpaceOnUse" gradientTransform="translate(36.6875 32.7016) rotate(135) scale(34.9134)">
        <stop stop-color="#99421D"/>
        <stop offset="0.333333" stop-color="#99161D"/>
        <stop offset="0.666667" stop-color="#7D1845"/>
        <stop offset="1" stop-color="#59216E"/>
      </radialGradient>
      <radialGradient id="paint1_radial" cx="0" cy="0" r="1" gradientUnits="userSpaceOnUse" gradientTransform="translate(42.5937 27.2992) rotate(135) scale(44.5477 44.5279)">
        <stop stop-color="#EF7744"/>
        <stop offset="0.333333" stop-color="#E50914"/>
        <stop offset="0.666667" stop-color="#A70D53"/>
        <stop offset="1" stop-color="#792A95"/>
      </radialGradient>
      <radialGradient id="paint2_radial" cx="0" cy="0" r="1" gradientUnits="userSpaceOnUse" gradientTransform="translate(42.3 29.106) rotate(135) scale(31.8127)">
        <stop stop-color="#FB540D"/>
        <stop offset="0.333333" stop-color="#E50914"/>
        <stop offset="0.666667" stop-color="#A70D53"/>
        <stop offset="1" stop-color="#792A95"/>
      </radialGradient>
      <radialGradient id="paint3_radial" cx="0" cy="0" r="1" gradientUnits="userSpaceOnUse" gradientTransform="translate(57.675 14.7078) rotate(134.326) scale(24.0433 24.0367)">
        <stop stop-color="#FFDCCC"/>
        <stop offset="0.333333" stop-color="#FFBDC0"/>
        <stop offset="0.666667" stop-color="#F89DC6"/>
        <stop offset="1" stop-color="#E4A1FA"/>
      </radialGradient>
      <radialGradient id="paint4_radial" cx="0" cy="0" r="1" gradientUnits="userSpaceOnUse" gradientTransform="translate(52.1305 21.273) rotate(141.875) scale(9.87138 12.8159)">
        <stop offset="0.307292" stop-color="#F89DC6"/>
        <stop offset="0.645392" stop-color="#E75094"/>
        <stop offset="1" stop-color="#59216E"/>
      </radialGradient>
      <radialGradient id="paint5_radial" cx="0" cy="0" r="1" gradientUnits="userSpaceOnUse" gradientTransform="translate(55.8 15.6) rotate(135) scale(13.1522)">
        <stop stop-color="white"/>
        <stop offset="1" stop-color="white" stop-opacity="0"/>
      </radialGradient>
    </defs>
  </g>
</svg>